<svg width="80" height="70" viewBox="0 0 80 70" fill="none" xmlns="http://www.w3.org/2000/svg">
<path fill-rule="evenodd" clip-rule="evenodd" d="M34.3741 54.669C34.3741 62.8834 41.0971 69.5675 49.362 69.5675C57.6269 69.5675 64.3499 62.8834 64.3499 54.669V15.504C64.3499 7.28957 57.6269 0.605469 49.362 0.605469C41.0971 0.605469 34.3741 7.28957 34.3741 15.504V54.669ZM46.5268 15.504C46.5268 13.9505 47.8007 12.6882 49.362 12.6882C50.9233 12.6882 52.1972 13.9505 52.1972 15.504V54.669C52.1972 56.2225 50.9233 57.4848 49.362 57.4848C47.7968 57.4848 46.5268 56.2225 46.5268 54.669V15.504ZM20.5185 34.7407C20.5185 34.7407 30.6671 30.3675 30.6671 17.139C30.6671 4.25227 21.3768 1.02867 11.3137 1.02867L0 1.09087V69.1829H11.3137V41.8754L11.8303 43.7552L21.9672 69.3228H35.5879L20.5185 34.7407ZM19.3805 18.1916C19.3805 27.0235 11.3098 28.7907 11.3098 28.7907V9.45277C11.3098 9.45277 19.3805 8.70707 19.3805 18.1916ZM80 1.44437H67.8435V69.3268H80V1.44437Z" fill="#FFCC00"/>
</svg>
